<svg width="40" height="40" viewBox="0 0 40 40" fill="none" xmlns="http://www.w3.org/2000/svg">
<g id="Interface essential/Calendar">
<g id="Icon">
<path d="M27.5 13.6H12.5C11.8097 13.6 11.25 14.1597 11.25 14.85C11.25 15.5404 11.8097 16.1 12.5 16.1H27.5C28.1904 16.1 28.75 15.5404 28.75 14.85C28.75 14.1597 28.1904 13.6 27.5 13.6Z" fill="#4A4A4A"/>
<path fill-rule="evenodd" clip-rule="evenodd" d="M28.15 5.95002H28.3333C32.9357 5.95002 36.6667 9.68098 36.6667 14.2834V29.2833C36.6667 33.8857 32.9357 37.6167 28.3333 37.6167H11.6667C9.45654 37.6167 7.33692 36.7387 5.77412 35.1759C4.21132 33.6131 3.33334 31.4935 3.33334 29.2833V14.2834C3.33334 9.68098 7.0643 5.95002 11.6667 5.95002H11.8167V2.91669C11.8167 2.22633 12.3763 1.66669 13.0667 1.66669C13.757 1.66669 14.3167 2.22633 14.3167 2.91669V5.95002H25.65V2.91669C25.65 2.22633 26.2097 1.66669 26.9 1.66669C27.5904 1.66669 28.15 2.22633 28.15 2.91669V5.95002ZM28.3333 35.1167C31.555 35.1167 34.1667 32.505 34.1667 29.2833V14.2834C34.1667 11.0617 31.555 8.45002 28.3333 8.45002H11.6667C8.44502 8.45002 5.83334 11.0617 5.83334 14.2834V29.2833C5.83334 32.505 8.44502 35.1167 11.6667 35.1167H28.3333Z" fill="#4A4A4A"/>
</g>
</g>
</svg>
