<svg width="28" height="24" viewBox="0 0 28 24" fill="none" xmlns="http://www.w3.org/2000/svg">
<g id="camera">
<path id="Subtract" fill-rule="evenodd" clip-rule="evenodd" d="M8.07037 2.21115C8.74794 0.856009 10.133 0 11.6481 0H16.3519C17.867 0 19.252 0.85601 19.9296 2.21115L20.4555 3.26295C20.6814 3.71466 21.143 4 21.6481 4H23.3333C25.5425 4 27.3333 5.79086 27.3333 8V20C27.3333 22.2091 25.5425 24 23.3333 24H4.66666C2.45752 24 0.666656 22.2091 0.666656 20V8C0.666656 5.79086 2.45752 4 4.66666 4H6.3519C6.85693 4 7.31861 3.71466 7.54447 3.26295L8.07037 2.21115ZM9.99999 13.3333C9.99999 11.1242 11.7908 9.33333 14 9.33333C16.2091 9.33333 18 11.1242 18 13.3333C18 15.5425 16.2091 17.3333 14 17.3333C11.7908 17.3333 9.99999 15.5425 9.99999 13.3333ZM14 6.66667C10.3181 6.66667 7.33332 9.65144 7.33332 13.3333C7.33332 17.0152 10.3181 20 14 20C17.6819 20 20.6667 17.0152 20.6667 13.3333C20.6667 9.65144 17.6819 6.66667 14 6.66667Z" fill="#4A4A4A"/>
</g>
</svg>
