<svg width="30" height="30" viewBox="0 0 30 30" fill="none" xmlns="http://www.w3.org/2000/svg">
<g id="User/Group-person">
<g id="Icon">
<path fill-rule="evenodd" clip-rule="evenodd" d="M20 10.95C19.9592 12.9917 18.2922 14.6254 16.25 14.625C14.2322 14.5918 12.6026 12.9677 12.5625 10.95V9.53751C12.5623 8.70549 12.8978 7.90859 13.4932 7.32737C14.0885 6.74614 14.8933 6.4298 15.725 6.45001H16.9C17.721 6.44668 18.5096 6.77051 19.0913 7.34989C19.673 7.92926 20 8.71648 20 9.53751V10.95ZM15.6875 8.28751C14.9972 8.28751 14.4375 8.84715 14.4375 9.53751L14.4875 10.95C14.4875 11.951 15.299 12.7625 16.3 12.7625C17.301 12.7625 18.1125 11.951 18.1125 10.95V9.53751C18.1125 8.84715 17.5529 8.28751 16.8625 8.28751H15.6875Z" fill="#665148"/>
<path fill-rule="evenodd" clip-rule="evenodd" d="M29.35 19.125L29.4875 21.075C29.632 21.6853 29.4909 22.3282 29.1042 22.8219C28.7175 23.3156 28.1272 23.6066 27.5 23.6125H21.8875C21.3979 24.1344 20.7156 24.4326 20 24.4375H12.5C11.7483 24.4476 11.0286 24.1333 10.525 23.575C10.4087 23.5879 10.2913 23.5879 10.175 23.575H4.43753C3.8275 23.552 3.259 23.2599 2.88504 22.7774C2.51109 22.2949 2.3701 21.6715 2.50003 21.075L2.68753 19.125C2.86993 18.1946 3.67704 17.5176 4.62503 17.5H10C10.2244 17.4876 10.4491 17.5172 10.6625 17.5875C11.1421 16.9885 11.8702 16.6428 12.6375 16.65H19.8625C20.585 16.6473 21.2732 16.9573 21.75 17.5C21.8371 17.4877 21.9255 17.4877 22.0125 17.5H27.4125C28.3605 17.5176 29.1676 18.1946 29.35 19.125ZM21.9375 21.7H27.6C27.6383 21.6264 27.6428 21.5398 27.6125 21.4625V21.2125L27.4875 19.4375L27.4125 19.3375H21.75C21.2216 19.3394 20.7172 19.1168 20.3625 18.725C20.2385 18.5767 20.0559 18.4899 19.8625 18.4875H12.6375C12.4281 18.4902 12.2309 18.5865 12.1 18.75C11.7432 19.1736 11.2164 19.4164 10.6625 19.4125C10.4357 19.4135 10.2109 19.3711 10 19.2875H4.68753C4.61253 19.2875 4.61253 19.3125 4.61253 19.3875L4.48753 21.1625V21.4125C4.45331 21.488 4.45331 21.5745 4.48753 21.65H10.225C10.3581 21.6378 10.492 21.6378 10.625 21.65C11.133 21.6594 11.6137 21.8817 11.95 22.2625C12.088 22.4239 12.2878 22.5193 12.5 22.525H20.05C20.2626 22.5209 20.4631 22.4252 20.6 22.2625C20.9515 21.9019 21.434 21.699 21.9375 21.7Z" fill="#665148"/>
<path fill-rule="evenodd" clip-rule="evenodd" d="M27.4625 12.825C27.4625 14.3438 26.2313 15.575 24.7125 15.575C23.981 15.5783 23.2783 15.2901 22.7599 14.774C22.2415 14.2579 21.95 13.5565 21.95 12.825V11.775C21.95 11.1617 22.1937 10.5735 22.6273 10.1398C23.061 9.70615 23.6492 9.46251 24.2625 9.46251H25.15C26.4272 9.46251 27.4625 10.4979 27.4625 11.775V12.825ZM23.9532 11.5156C23.8711 11.5977 23.825 11.709 23.825 11.825V12.875C23.8783 13.3213 24.2568 13.6574 24.7063 13.6574C25.1558 13.6574 25.5343 13.3213 25.5875 12.875V11.825C25.5875 11.5834 25.3917 11.3875 25.15 11.3875H24.2625C24.1465 11.3875 24.0352 11.4336 23.9532 11.5156Z" fill="#665148"/>
<path fill-rule="evenodd" clip-rule="evenodd" d="M9.27766 14.774C8.75923 15.2901 8.05654 15.5783 7.32503 15.575C6.59569 15.575 5.89621 15.2853 5.38049 14.7696C4.86476 14.2538 4.57503 13.5544 4.57503 12.825V11.775C4.57503 10.4979 5.61037 9.46251 6.88753 9.46251H7.77503C9.05219 9.46251 10.0875 10.4979 10.0875 11.775V12.825C10.0875 13.5565 9.79609 14.2579 9.27766 14.774ZM6.88753 11.3875C6.64591 11.3875 6.45003 11.5834 6.45003 11.825V12.875C6.50328 13.3213 6.8818 13.6574 7.33128 13.6574C7.78077 13.6574 8.15928 13.3213 8.21253 12.875V11.825C8.21253 11.5834 8.01666 11.3875 7.77503 11.3875H6.88753Z" fill="#665148"/>
</g>
</g>
</svg>
