<svg width="30" height="30" viewBox="0 0 30 30" fill="none" xmlns="http://www.w3.org/2000/svg">
<g id="Edit/Edit">
<g id="Icon">
<path fill-rule="evenodd" clip-rule="evenodd" d="M9.73747 19.0875L10.65 14.825C10.7828 14.2327 11.082 13.6906 11.5125 13.2625L19.85 5C20.6954 4.13872 21.8434 3.64098 23.05 3.6125C23.96 3.59946 24.8375 3.95047 25.4875 4.5875C26.9077 6.26558 26.7243 8.77153 25.075 10.225L16.7375 18.5625C16.3094 18.9929 15.7673 19.2922 15.175 19.425L10.9125 20.3375H10.675C10.3634 20.3494 10.0657 20.2077 9.87863 19.9582C9.69152 19.7087 9.63877 19.3833 9.73747 19.0875ZM12.8375 14.6C12.6623 14.7697 12.5407 14.987 12.4875 15.225L11.875 18.1375L14.7875 17.5125C15.0255 17.4593 15.2427 17.3376 15.4125 17.1625L23.75 8.825C24.6633 8.09378 24.8446 6.7756 24.1625 5.825C23.8638 5.53964 23.4628 5.38647 23.05 5.4C22.3382 5.42858 21.6656 5.7335 21.175 6.25L12.8375 14.6Z" fill="#665148"/>
<path d="M24.8875 13.6625C24.3725 13.6692 23.9567 14.0851 23.95 14.6V21.7125C23.9667 22.7179 23.5791 23.6878 22.874 24.4046C22.1689 25.1215 21.2055 25.5251 20.2 25.525H8.28748C6.20919 25.4843 4.54387 23.7912 4.53748 21.7125V9.85C4.5716 7.76887 6.26856 6.09972 8.34998 6.1H15.4625C15.9802 6.1 16.4 5.68027 16.4 5.1625C16.4 4.64474 15.9802 4.225 15.4625 4.225H8.28748C5.1706 4.22481 2.63423 6.73332 2.59998 9.85V21.7125C2.59998 24.8536 5.14636 27.4 8.28748 27.4H20.15C23.2862 27.3931 25.825 24.8487 25.825 21.7125V14.6C25.8182 14.0851 25.4024 13.6692 24.8875 13.6625Z" fill="#665148"/>
</g>
</g>
</svg>
