<svg width="25" height="24" viewBox="0 0 25 24" fill="none" xmlns="http://www.w3.org/2000/svg">
<g id="Interface essential/Pen">
<path id="Icon" fill-rule="evenodd" clip-rule="evenodd" d="M21.3179 15.1566L22.0779 20.4366C22.139 20.8813 21.9877 21.3289 21.6692 21.6454C21.3508 21.9618 20.9023 22.1104 20.4579 22.0466L15.1779 21.2866C14.4622 21.1879 13.7984 20.8578 13.2879 20.3466L3.54792 10.5966C2.24813 9.34119 1.72685 7.48218 2.18443 5.73403C2.64201 3.98588 4.00723 2.62066 5.75538 2.16308C7.50353 1.7055 9.36254 2.22678 10.6179 3.52656L20.3779 13.2666C20.8891 13.7771 21.2192 14.4409 21.3179 15.1566ZM10.7279 11.7666C11.0207 12.059 11.4951 12.059 11.7879 11.7666C12.0804 11.4737 12.0804 10.9994 11.7879 10.7066L7.57792 6.49656C7.28241 6.22121 6.82191 6.22933 6.53629 6.51494C6.25068 6.80056 6.24256 7.26105 6.51792 7.55656L10.7279 11.7666Z" fill="#665148"/>
</g>
</svg>
