<svg width="54" height="53" viewBox="0 0 54 53" fill="none" xmlns="http://www.w3.org/2000/svg">
<g id="Interface essential/Pluse regtangle">
<g id="Icon">
<path fill-rule="evenodd" clip-rule="evenodd" d="M13.5833 4.41669H40.0833C44.9618 4.41669 48.9166 8.3715 48.9166 13.25V39.75C48.9166 44.6285 44.9618 48.5834 40.0833 48.5834H13.5833C8.70479 48.5834 4.74998 44.6285 4.74998 39.75V13.25C4.74998 8.3715 8.70479 4.41669 13.5833 4.41669ZM43.8466 43.5133C44.8447 42.5152 45.4054 41.1615 45.4054 39.75V13.25C45.4054 11.8385 44.8447 10.4848 43.8466 9.48674C42.8485 8.48866 41.4948 7.92794 40.0833 7.92794H13.5833C10.644 7.92794 8.26123 10.3107 8.26123 13.25V39.75C8.26123 41.1615 8.82195 42.5152 9.82003 43.5133C10.8181 44.5114 12.1718 45.0721 13.5833 45.0721H40.0833C41.4948 45.0721 42.8485 44.5114 43.8466 43.5133Z" fill="#4A4A4A"/>
<path d="M35.6666 24.8438H28.4896V17.6667C28.4896 16.752 27.748 16.0104 26.8333 16.0104C25.9186 16.0104 25.1771 16.752 25.1771 17.6667V24.8438H18C17.0853 24.8438 16.3437 25.5853 16.3437 26.5C16.3437 27.4147 17.0853 28.1563 18 28.1563H25.1771V35.3334C25.1771 36.2481 25.9186 36.9896 26.8333 36.9896C27.748 36.9896 28.4896 36.2481 28.4896 35.3334V28.1563H35.6666C36.5814 28.1563 37.3229 27.4147 37.3229 26.5C37.3229 25.5853 36.5814 24.8438 35.6666 24.8438Z" fill="#4A4A4A"/>
</g>
</g>
</svg>
