<svg width="22" height="22" viewBox="0 0 22 22" fill="none" xmlns="http://www.w3.org/2000/svg">
<g id="user">
<path id="Ellipse 328 (Stroke)" fill-rule="evenodd" clip-rule="evenodd" d="M11 1.75C8.37665 1.75 6.25 3.87665 6.25 6.5C6.25 9.12335 8.37665 11.25 11 11.25C13.6234 11.25 15.75 9.12335 15.75 6.5C15.75 3.87665 13.6234 1.75 11 1.75ZM4.75 6.5C4.75 3.04822 7.54822 0.25 11 0.25C14.4518 0.25 17.25 3.04822 17.25 6.5C17.25 9.95178 14.4518 12.75 11 12.75C7.54822 12.75 4.75 9.95178 4.75 6.5Z" fill="black"/>
<path id="Ellipse 328 (Stroke)_2" fill-rule="evenodd" clip-rule="evenodd" d="M11 12.75C6.53459 12.75 2.87987 15.5572 1.97063 19.2009C1.85325 19.6713 2.2423 20.25 3 20.25H11C11.4142 20.25 11.75 20.5858 11.75 21C11.75 21.4142 11.4142 21.75 11 21.75H3C1.54856 21.75 0.0977843 20.5108 0.515262 18.8378C1.61114 14.4461 5.93195 11.25 11 11.25C16.0681 11.25 20.3889 14.4461 21.4847 18.8378C21.9022 20.5108 20.4514 21.75 19 21.75H16C15.5858 21.75 15.25 21.4142 15.25 21C15.25 20.5858 15.5858 20.25 16 20.25H19C19.7577 20.25 20.1468 19.6713 20.0294 19.2009C19.1201 15.5572 15.4654 12.75 11 12.75Z" fill="black"/>
</g>
</svg>
