<svg width="55" height="55" viewBox="0 0 55 55" fill="none" xmlns="http://www.w3.org/2000/svg">
<g id="profile">
<path id="Ellipse 38 (Stroke)" fill-rule="evenodd" clip-rule="evenodd" d="M27.5 5.83335C15.5338 5.83335 5.83335 15.5338 5.83335 27.5C5.83335 39.4662 15.5338 49.1667 27.5 49.1667C39.4662 49.1667 49.1667 39.4662 49.1667 27.5C49.1667 15.5338 39.4662 5.83335 27.5 5.83335ZM0.416687 27.5C0.416687 12.5423 12.5423 0.416687 27.5 0.416687C42.4577 0.416687 54.5834 12.5423 54.5834 27.5C54.5834 42.4577 42.4577 54.5833 27.5 54.5833C12.5423 54.5833 0.416687 42.4577 0.416687 27.5Z" fill="#4A4A4A"/>
<path id="Ellipse 39 (Stroke)" fill-rule="evenodd" clip-rule="evenodd" d="M27.5 16.6667C24.5085 16.6667 22.0834 19.0918 22.0834 22.0833C22.0834 25.0749 24.5085 27.5 27.5 27.5C30.4916 27.5 32.9167 25.0749 32.9167 22.0833C32.9167 19.0918 30.4916 16.6667 27.5 16.6667ZM16.6667 22.0833C16.6667 16.1002 21.5169 11.25 27.5 11.25C33.4831 11.25 38.3334 16.1002 38.3334 22.0833C38.3334 28.0664 33.4831 32.9167 27.5 32.9167C21.5169 32.9167 16.6667 28.0664 16.6667 22.0833Z" fill="#4A4A4A"/>
<path id="Ellipse 39 (Stroke)_2" fill-rule="evenodd" clip-rule="evenodd" d="M27.5 39.6875C21.4887 39.6875 16.2361 42.9503 13.4223 47.8145L8.73364 45.1022C12.4758 38.6331 19.4769 34.2709 27.5 34.2709C35.5232 34.2709 42.5242 38.6331 46.2664 45.1022L41.5777 47.8145C38.7639 42.9503 33.5114 39.6875 27.5 39.6875Z" fill="#4A4A4A"/>
</g>
</svg>
